<svg xmlns="http://www.w3.org/2000/svg" version="1.1" viewBox="1.2295184135437012 1.4592962265014648 518.3637084960938 518.4583129882812" width="521.00" height="521.00">
<path fill="#017c8c" d="&#10;  M 82.95 449.63&#10;  C 80.67 447.54 78.60 445.56 77.58 442.80&#10;  A 0.74 0.74 0.0 0 1 78.22 441.80&#10;  C 82.34 441.53 86.43 442.34 90.24 442.03&#10;  C 103.93 440.90 117.85 439.92 131.04 436.92&#10;  Q 158.26 430.72 184.44 421.03&#10;  C 197.36 416.26 207.99 412.44 218.44 406.92&#10;  Q 221.04 405.53 223.03 404.74&#10;  C 231.11 401.51 238.89 397.15 246.70 393.30&#10;  Q 248.94 392.20 250.20 390.37&#10;  Q 259.67 376.73 250.00 364.87&#10;  C 241.15 354.02 229.24 359.22 219.41 364.56&#10;  C 211.60 368.80 204.24 372.11 195.83 375.05&#10;  C 191.38 376.61 187.45 378.87 183.14 380.40&#10;  C 170.76 384.82 158.39 390.20 146.09 393.55&#10;  C 122.81 399.89 101.45 405.06 77.01 404.07&#10;  C 65.11 403.59 60.03 418.60 63.40 427.74&#10;  A 0.28 0.27 -74.8 0 1 62.93 428.01&#10;  Q 52.48 415.27 43.17 401.82&#10;  C 41.69 399.67 40.98 397.12 39.20 395.02&#10;  C 34.64 389.63 32.76 384.46 30.13 378.59&#10;  C 27.22 372.11 23.37 365.62 20.30 358.94&#10;  C 18.47 354.94 17.84 350.45 16.35 346.74&#10;  Q 2.77 312.77 1.52 276.00&#10;  C 0.60 249.06 1.63 225.74 8.05 200.33&#10;  Q 13.35 179.36 21.81 159.38&#10;  C 26.30 148.75 31.93 140.64 36.50 131.03&#10;  C 39.51 124.71 42.95 120.23 46.83 114.91&#10;  C 49.21 111.64 52.47 105.63 56.67 101.68&#10;  C 58.15 100.29 59.63 97.17 61.36 95.31&#10;  Q 65.93 90.40 70.36 85.36&#10;  C 73.78 81.46 78.57 77.54 82.46 73.28&#10;  Q 84.98 70.53 87.40 68.59&#10;  C 95.09 62.44 102.18 55.24 110.33 49.87&#10;  Q 136.35 32.76 156.98 23.45&#10;  Q 168.87 18.08 190.74 11.98&#10;  C 217.36 4.57 246.30 0.29 272.49 1.74&#10;  Q 284.58 2.40 305.87 6.11&#10;  C 308.62 6.59 313.79 8.21 317.87 8.67&#10;  Q 320.38 8.96 322.61 9.83&#10;  C 327.11 11.60 332.32 12.48 336.42 13.83&#10;  C 344.79 16.59 351.87 18.22 360.94 22.38&#10;  C 374.48 28.60 388.34 35.12 400.60 43.63&#10;  C 404.39 46.27 408.86 48.46 412.29 51.03&#10;  C 432.23 65.97 447.83 81.94 462.98 99.89&#10;  C 468.09 105.93 472.46 113.12 477.39 119.70&#10;  C 480.24 123.50 481.87 127.66 484.39 131.60&#10;  C 499.18 154.75 508.47 182.04 514.60 208.79&#10;  Q 516.83 218.54 517.86 228.48&#10;  Q 520.33 252.16 519.28 276.00&#10;  C 517.76 310.76 506.96 347.15 491.48 378.23&#10;  C 490.17 380.87 487.85 383.51 486.42 386.92&#10;  C 483.48 393.91 478.10 400.81 473.43 406.76&#10;  C 471.16 409.65 469.71 413.16 467.57 415.85&#10;  Q 453.99 432.89 449.55 437.55&#10;  Q 441.25 446.28 422.87 462.14&#10;  C 417.48 466.80 410.97 470.49 405.04 474.95&#10;  C 395.78 481.91 386.02 485.76 376.71 491.93&#10;  Q 374.34 493.50 371.94 494.54&#10;  C 354.40 502.13 339.47 508.24 321.88 512.04&#10;  C 317.64 512.95 313.07 514.65 308.51 515.53&#10;  C 266.57 523.63 222.46 520.28 181.22 507.42&#10;  C 174.67 505.38 167.64 502.09 160.76 499.59&#10;  C 154.09 497.16 148.73 494.32 142.81 491.09&#10;  C 138.24 488.60 131.40 486.14 126.21 482.45&#10;  C 115.57 474.89 104.85 467.81 94.72 459.51&#10;  Q 91.97 457.25 89.60 454.58&#10;  C 87.66 452.39 85.11 451.61 82.95 449.63&#10;  Z&#10;  M 264.83 93.11&#10;  C 247.67 89.50 233.14 83.92 216.53 76.71&#10;  Q 210.87 74.25 202.85 74.46&#10;  C 198.77 74.56 193.49 82.12 191.73 85.28&#10;  Q 188.83 90.51 189.09 95.18&#10;  C 189.94 110.43 213.34 116.07 224.65 120.16&#10;  Q 231.18 122.53 239.55 124.67&#10;  C 249.14 127.13 259.15 130.22 268.25 132.00&#10;  C 291.75 136.60 316.00 138.17 340.51 138.27&#10;  C 346.66 138.30 358.75 135.91 360.09 128.33&#10;  C 361.86 118.31 361.09 102.86 347.06 102.41&#10;  C 318.45 101.48 292.02 98.85 264.83 93.11&#10;  Z&#10;  M 345.16 316.59&#10;  C 349.36 319.77 357.93 325.48 363.10 321.61&#10;  C 367.77 318.11 373.42 315.39 377.77 312.52&#10;  C 385.93 307.15 393.86 303.27 402.03 298.88&#10;  C 419.24 289.61 437.49 283.42 456.75 279.98&#10;  C 466.75 278.20 469.32 266.12 466.96 257.66&#10;  C 465.66 253.00 461.59 249.99 457.53 247.83&#10;  C 448.19 242.86 425.93 249.46 416.07 252.40&#10;  C 406.85 255.15 397.61 259.63 388.57 263.82&#10;  C 376.30 269.51 364.80 277.35 353.08 284.40&#10;  Q 351.20 285.52 349.34 287.63&#10;  C 346.89 290.39 343.17 292.45 341.79 295.33&#10;  C 339.09 300.95 340.36 312.95 345.16 316.59&#10;  Z"/>
</svg>